<svg xmlns="http://www.w3.org/2000/svg" xmlns:xlink="http://www.w3.org/1999/xlink" width="376.852" height="158.496" viewBox="0 0 376.852 158.496">
  <defs>
    <clipPath id="clip-path">
      <rect id="Rectangle_36" data-name="Rectangle 36" width="376.852" height="158.496" transform="translate(0 0)" fill="none"/>
    </clipPath>
  </defs>
  <g id="Group_63" data-name="Group 63" transform="translate(0 0.001)">
    <g id="Group_62" data-name="Group 62" transform="translate(0 -0.001)" clip-path="url(#clip-path)">
      <path id="Path_79" data-name="Path 79" d="M0,1407.769v-26.078H8.583v25.748c0,9.507,4.291,13.6,11.752,13.6s11.686-4.093,11.686-13.6v-25.748h8.451v26.078c0,13.468-7.592,20.8-20.2,20.8-12.676,0-20.268-7.328-20.268-20.8" transform="translate(0 -1288.865)" fill="#1100b2"/>
      <path id="Path_80" data-name="Path 80" d="M822.314,1381.691v46.215h-7.064l-25.484-31.294v31.294h-8.517v-46.215h7.064l25.484,31.294v-31.294Z" transform="translate(-728.762 -1288.865)" fill="#1100b2"/>
      <rect id="Rectangle_33" data-name="Rectangle 33" width="8.583" height="46.215" transform="translate(105.964 92.826)" fill="#1100b2"/>
      <rect id="Rectangle_34" data-name="Rectangle 34" width="18.156" height="6.866" transform="translate(121.148 117.254)" fill="#1100b2"/>
      <path id="Path_81" data-name="Path 81" d="M2095.132,1421.9l4.885-5.876c2.509,3.433,5.546,5.282,9.177,5.282,4.753,0,7.2-2.839,7.2-8.517v-23.9h-16.439v-7.2h25.022v30.634c0,10.893-5.414,16.241-15.581,16.241-5.81,0-11.092-2.377-14.26-6.668" transform="translate(-1954.375 -1288.865)" fill="#1100b2"/>
      <path id="Path_82" data-name="Path 82" d="M2642.651,1417.21h-23.107l-4.555,10.7h-8.847l20.8-46.215h8.451l20.863,46.215h-8.979Zm-2.839-6.734-8.715-20.2-8.649,20.2Z" transform="translate(-2431.054 -1288.865)" fill="#1100b2"/>
      <path id="Path_83" data-name="Path 83" d="M3381.5,1413.853l2.971-6.668a25.608,25.608,0,0,0,15.251,5.084c7.2,0,10.233-2.575,10.233-6.008,0-9.969-27.465-3.433-27.465-20.6,0-7.46,5.942-13.8,18.618-13.8,5.546,0,11.355,1.452,15.383,4.093l-2.707,6.668a25.681,25.681,0,0,0-12.742-3.631c-7.13,0-10.035,2.773-10.035,6.272,0,9.837,27.4,3.433,27.4,20.4,0,7.394-6.008,13.732-18.684,13.732-7.2,0-14.393-2.245-18.222-5.546" transform="translate(-3154.32 -1279.698)" fill="#1100b2"/>
      <path id="Path_84" data-name="Path 84" d="M4282.1,331.2c7.988,7.882,18.13,11.8,28.406,13.426,39.651-8.38,60.762-46.3,60.762-46.3s-39.03,21.4-84.4,26.908Z" transform="translate(-3994.421 -278.286)" fill="#ff9797"/>
      <path id="Path_85" data-name="Path 85" d="M4704.923,344.627a90.449,90.449,0,0,0,21.709.568,125.922,125.922,0,0,0,24.393-4.63c1.473-.441,2.294-.726,2.316-.734a66.838,66.838,0,0,0,12.344-38.73v-2.772s-21.111,37.918-60.762,46.3" transform="translate(-4388.833 -278.286)" fill="#ff4e00"/>
      <path id="Path_86" data-name="Path 86" d="M4353.087,325.237c45.369-5.5,84.4-26.908,84.4-26.908H4374.6Z" transform="translate(-4060.635 -278.286)" fill="#89d0ca"/>
      <path id="Path_87" data-name="Path 87" d="M5425.572,916.077h0l0,.005,0-.005" transform="translate(-5061.063 -854.532)"/>
      <path id="Path_88" data-name="Path 88" d="M3729.066,62.277a125.936,125.936,0,0,1-24.394,4.63,90.452,90.452,0,0,1-21.709-.568c-10.276-1.626-20.418-5.544-28.406-13.426l4.769-5.964,21.516-26.908h-15.518A29.164,29.164,0,0,0,3617.771,7.8a26.553,26.553,0,0,0-8.328,17.427q-.01.123-.018.248a26.157,26.157,0,0,0,.093,4.7,66.871,66.871,0,0,0,11.36,30.534A67.564,67.564,0,0,0,3666.62,89.4a67.122,67.122,0,0,0,9.8.718h0a67.179,67.179,0,0,0,8.871-.588,67.523,67.523,0,0,0,46.088-27.984v0c-.068.023-.884.3-2.312.732" transform="translate(-3366.874 0.001)" fill="#1100b2"/>
      <path id="Path_89" data-name="Path 89" d="M4252.207,1346.293v-4.744s-24.134,2.774-24.134-17.511c0-19.09,1.014-26.576,3.791-29.924h-14.752c2.777,3.348,3.791,10.834,3.791,29.924,0,20.286-24.134,17.511-24.134,17.511v4.744Z" transform="translate(-3914.818 -1207.171)" fill="#1100b2"/>
      <path id="Path_90" data-name="Path 90" d="M2101.371,2202.789l.719-1.423a5.383,5.383,0,0,0,2.787.794c1.184,0,1.678-.33,1.678-.884,0-1.528-4.944-.09-4.944-3.281,0-1.513,1.363-2.5,3.521-2.5a6.367,6.367,0,0,1,3,.689l-.719,1.423a4.379,4.379,0,0,0-2.292-.6c-1.139,0-1.678.375-1.678.9,0,1.618,4.944.18,4.944,3.311,0,1.5-1.378,2.472-3.626,2.472a6.357,6.357,0,0,1-3.386-.9" transform="translate(-1960.195 -2047.994)" fill="#1100b2"/>
      <path id="Path_91" data-name="Path 91" d="M2238.313,2199.582a3.9,3.9,0,0,1-4.06,4.105,3.287,3.287,0,0,1-2.562-1.079v3.881h-1.873v-10.907h1.783v1.049a3.3,3.3,0,0,1,2.652-1.139,3.893,3.893,0,0,1,4.06,4.09m-1.9,0a2.378,2.378,0,1,0-2.367,2.5,2.327,2.327,0,0,0,2.367-2.5" transform="translate(-2080.013 -2047.993)" fill="#1100b2"/>
      <path id="Path_92" data-name="Path 92" d="M2372.982,2199.582a4.265,4.265,0,1,1,4.255,4.105,4.027,4.027,0,0,1-4.255-4.105m6.637,0a2.378,2.378,0,1,0-2.382,2.5,2.33,2.33,0,0,0,2.382-2.5" transform="translate(-2213.559 -2047.993)" fill="#1100b2"/>
      <rect id="Rectangle_35" data-name="Rectangle 35" width="1.873" height="11.117" transform="translate(169.745 144.473)" fill="#1100b2"/>
      <path id="Path_93" data-name="Path 93" d="M2581.259,2199.582a4.265,4.265,0,1,1,4.255,4.105,4.027,4.027,0,0,1-4.255-4.105m6.637,0a2.378,2.378,0,1,0-2.382,2.5,2.33,2.33,0,0,0,2.382-2.5" transform="translate(-2407.843 -2047.993)" fill="#1100b2"/>
      <path id="Path_94" data-name="Path 94" d="M2731.4,2158.539l1.438.839a3.637,3.637,0,0,1-3.416,1.873,4.1,4.1,0,1,1,0-8.2,3.6,3.6,0,0,1,3.416,1.858l-1.438.839a2.264,2.264,0,0,0-1.993-1.109,2.5,2.5,0,0,0,0,5,2.264,2.264,0,0,0,1.993-1.109m-3.131-6.487-2.008-2.053h1.543l1.318,1.109,1.319-1.109h1.543l-2.008,2.053Z" transform="translate(-2542.014 -2005.556)" fill="#1100b2"/>
      <path id="Path_95" data-name="Path 95" d="M2872.346,2199v4.584h-1.873v-4.345c0-1.423-.7-2.113-1.9-2.113a2.125,2.125,0,0,0-2.232,2.412v4.045h-1.873v-8h1.783v1.034a3.478,3.478,0,0,1,2.757-1.124c1.917,0,3.341,1.094,3.341,3.506" transform="translate(-2672.023 -2047.993)" fill="#1100b2"/>
      <path id="Path_96" data-name="Path 96" d="M3008.521,2199.582a4.265,4.265,0,1,1,4.255,4.105,4.027,4.027,0,0,1-4.255-4.105m6.637,0a2.378,2.378,0,1,0-2.382,2.5,2.33,2.33,0,0,0,2.382-2.5" transform="translate(-2806.401 -2047.993)" fill="#1100b2"/>
      <path id="Path_97" data-name="Path 97" d="M3148.563,2202.789l.719-1.423a5.381,5.381,0,0,0,2.787.794c1.184,0,1.678-.33,1.678-.884,0-1.528-4.944-.09-4.944-3.281,0-1.513,1.363-2.5,3.521-2.5a6.367,6.367,0,0,1,3,.689l-.719,1.423a4.379,4.379,0,0,0-2.292-.6c-1.139,0-1.678.375-1.678.9,0,1.618,4.944.18,4.944,3.311,0,1.5-1.378,2.472-3.626,2.472a6.358,6.358,0,0,1-3.386-.9" transform="translate(-2937.034 -2047.994)" fill="#1100b2"/>
      <path id="Path_98" data-name="Path 98" d="M3267.05,2155.926a2.942,2.942,0,0,1-1.8.539,2.458,2.458,0,0,1-2.757-2.7v-3.85h-1.319v-1.5h1.319v-1.828h1.873v1.828h2.142v1.5h-2.142v3.805c0,.779.389,1.2,1.109,1.2a1.683,1.683,0,0,0,1.049-.33Zm-.344-8.42h-1.214v-2.637h1.408Z" transform="translate(-3042.083 -2000.771)" fill="#1100b2"/>
      <path id="Path_99" data-name="Path 99" d="M3419.5,2202.789l.719-1.423a5.382,5.382,0,0,0,2.787.794c1.183,0,1.678-.33,1.678-.884,0-1.528-4.944-.09-4.944-3.281,0-1.513,1.364-2.5,3.521-2.5a6.366,6.366,0,0,1,3,.689l-.719,1.423a4.379,4.379,0,0,0-2.292-.6c-1.139,0-1.678.375-1.678.9,0,1.618,4.944.18,4.944,3.311,0,1.5-1.378,2.472-3.626,2.472a6.358,6.358,0,0,1-3.386-.9" transform="translate(-3189.772 -2047.994)" fill="#1100b2"/>
      <path id="Path_100" data-name="Path 100" d="M3614.125,2195.492v1.783a2.368,2.368,0,0,0-.434-.045,2.181,2.181,0,0,0-2.322,2.472v3.88H3609.5v-8h1.783v1.169a3.148,3.148,0,0,1,2.846-1.259" transform="translate(-3367 -2047.993)" fill="#1100b2"/>
      <path id="Path_101" data-name="Path 101" d="M3691.56,2281.7a1.229,1.229,0,1,1,2.457,0,1.229,1.229,0,1,1-2.457,0" transform="translate(-3443.551 -2127.251)" fill="#1100b2"/>
      <path id="Path_102" data-name="Path 102" d="M3743.295,2199.582a4.265,4.265,0,1,1,4.255,4.105,4.027,4.027,0,0,1-4.255-4.105m6.637,0a2.378,2.378,0,1,0-2.382,2.5,2.33,2.33,0,0,0,2.382-2.5" transform="translate(-3491.81 -2047.993)" fill="#1100b2"/>
      <path id="Path_103" data-name="Path 103" d="M3885.345,2281.7a1.229,1.229,0,1,1,2.457,0,1.229,1.229,0,1,1-2.457,0" transform="translate(-3624.317 -2127.251)" fill="#1100b2"/>
    </g>
  </g>
</svg>
