<svg xmlns="http://www.w3.org/2000/svg" xmlns:xlink="http://www.w3.org/1999/xlink" width="307.15" height="113.862" viewBox="0 0 307.15 113.862">
  <defs>
    <clipPath id="clip-path">
      <rect id="Rectangle_35" data-name="Rectangle 35" width="307.15" height="113.862" transform="translate(0 0)" fill="none"/>
    </clipPath>
  </defs>
  <g id="Group_63" data-name="Group 63" transform="translate(0 -0.005)">
    <g id="Group_62" data-name="Group 62" transform="translate(0 0.005)" clip-path="url(#clip-path)">
      <path id="Path_79" data-name="Path 79" d="M0,1402.952V1381.7H7v20.986c0,7.749,3.5,11.085,9.578,11.085s9.524-3.336,9.524-11.085V1381.7h6.888v21.255c0,10.977-6.188,16.95-16.466,16.95-10.331,0-16.52-5.973-16.52-16.95" transform="translate(0 -1306.04)" fill="#1100b2"/>
      <path id="Path_80" data-name="Path 80" d="M814.718,1381.7v37.667h-5.758l-20.771-25.506v25.506h-6.941V1381.7h5.758l20.771,25.506V1381.7Z" transform="translate(-738.47 -1306.04)" fill="#1100b2"/>
      <rect id="Rectangle_33" data-name="Rectangle 33" width="6.995" height="37.667" transform="translate(86.365 75.657)" fill="#1100b2"/>
      <rect id="Rectangle_34" data-name="Rectangle 34" width="14.798" height="5.596" transform="translate(98.74 95.566)" fill="#1100b2"/>
      <path id="Path_81" data-name="Path 81" d="M2095.132,1414.466l3.982-4.789c2.045,2.8,4.52,4.3,7.479,4.3,3.874,0,5.865-2.314,5.865-6.941v-19.479h-13.4V1381.7h20.394v24.968c0,8.879-4.413,13.237-12.7,13.237a14.206,14.206,0,0,1-11.623-5.435" transform="translate(-1980.41 -1306.039)" fill="#1100b2"/>
      <path id="Path_82" data-name="Path 82" d="M2635.9,1410.647h-18.833l-3.713,8.717h-7.21l16.95-37.667h6.887l17,37.667h-7.318Zm-2.314-5.489-7.1-16.466-7.049,16.466Z" transform="translate(-2463.438 -1306.04)" fill="#1100b2"/>
      <path id="Path_83" data-name="Path 83" d="M3381.5,1406.092l2.421-5.435a20.871,20.871,0,0,0,12.43,4.143c5.865,0,8.34-2.1,8.34-4.9,0-8.125-22.385-2.8-22.385-16.789,0-6.08,4.843-11.246,15.174-11.246a23.814,23.814,0,0,1,12.538,3.336l-2.206,5.435a20.932,20.932,0,0,0-10.385-2.959c-5.812,0-8.179,2.26-8.179,5.112,0,8.018,22.331,2.8,22.331,16.627,0,6.027-4.9,11.192-15.228,11.192-5.865,0-11.73-1.83-14.852-4.52" transform="translate(-3196.339 -1296.75)" fill="#1100b2"/>
      <path id="Path_84" data-name="Path 84" d="M4282.1,325.126c6.51,6.424,14.777,9.617,23.152,10.943,32.317-6.83,49.524-37.735,49.524-37.735s-31.812,17.445-68.79,21.931Z" transform="translate(-4047.63 -281.999)" fill="#ff9797"/>
      <path id="Path_85" data-name="Path 85" d="M4704.923,336.069a73.715,73.715,0,0,0,17.694.463,102.655,102.655,0,0,0,19.882-3.774c1.2-.359,1.87-.592,1.887-.6a54.475,54.475,0,0,0,10.061-31.567v-2.26s-17.207,30.9-49.523,37.735" transform="translate(-4447.297 -281.999)" fill="#ff4e00"/>
      <path id="Path_86" data-name="Path 86" d="M4353.087,320.266c36.978-4.486,68.789-21.931,68.789-21.931h-51.253Z" transform="translate(-4114.727 -281.999)" fill="#89d0ca"/>
      <path id="Path_87" data-name="Path 87" d="M5425.571,916.083h0l0,0,0,0" transform="translate(-5128.481 -865.922)"/>
      <path id="Path_88" data-name="Path 88" d="M3706.926,50.765a102.646,102.646,0,0,1-19.882,3.774,73.721,73.721,0,0,1-17.694-.463c-8.375-1.325-16.642-4.519-23.152-10.943l3.887-4.861,17.536-21.931h-12.647a23.77,23.77,0,0,0-38.757-9.979,21.639,21.639,0,0,0-6.788,14.2c-.005.067-.01.135-.015.2a21.32,21.32,0,0,0,.076,3.833,54.5,54.5,0,0,0,9.259,24.887,55.067,55.067,0,0,0,37.282,23.384,54.714,54.714,0,0,0,7.987.585h0a54.762,54.762,0,0,0,7.23-.479,55.034,55.034,0,0,0,37.563-22.808v0c-.055.019-.72.249-1.884.6" transform="translate(-3411.724 -0.005)" fill="#1100b2"/>
      <path id="Path_89" data-name="Path 89" d="M4241.953,1336.648v-3.867s-19.67,2.261-19.67-14.272c0-15.559.826-21.661,3.09-24.39h-12.023c2.264,2.729,3.09,8.83,3.09,24.39,0,16.533-19.67,14.272-19.67,14.272v3.867Z" transform="translate(-3966.967 -1223.258)" fill="#1100b2"/>
    </g>
  </g>
</svg>
