<svg xmlns="http://www.w3.org/2000/svg" xmlns:xlink="http://www.w3.org/1999/xlink" width="81.574" height="84.462" viewBox="0 0 81.574 84.462">
  <defs>
    <clipPath id="clip-path">
      <rect id="Rectangle_33" data-name="Rectangle 33" width="81.574" height="84.462" fill="none"/>
    </clipPath>
  </defs>
  <g id="Group_63" data-name="Group 63" transform="translate(0 0.002)">
    <g id="Group_62" data-name="Group 62" transform="translate(0 -0.002)" clip-path="url(#clip-path)">
      <path id="Path_79" data-name="Path 79" d="M672.744,318.285c4.849,4.785,11.007,7.164,17.245,8.151,24.072-5.088,36.889-28.108,36.889-28.108s-23.7,12.994-51.24,16.336Z" transform="translate(-645.305 -286.16)" fill="#ff9797"/>
      <path id="Path_80" data-name="Path 80" d="M1095.563,326.436a54.912,54.912,0,0,0,13.18.345,76.453,76.453,0,0,0,14.809-2.811c.894-.267,1.393-.441,1.406-.445a40.577,40.577,0,0,0,7.494-23.513v-1.683s-12.817,23.02-36.889,28.108" transform="translate(-1050.878 -286.16)" fill="#ff4e00"/>
      <path id="Path_81" data-name="Path 81" d="M743.727,314.664c27.544-3.342,51.24-16.336,51.24-16.336H756.789Z" transform="translate(-713.393 -286.16)" fill="#89d0ca"/>
      <path id="Path_82" data-name="Path 82" d="M1816.21,916.076h0l0,0,0,0" transform="translate(-1742.13 -878.712)"/>
      <path id="Path_83" data-name="Path 83" d="M72.674,37.808a76.456,76.456,0,0,1-14.809,2.811,54.912,54.912,0,0,1-13.18-.345c-6.238-.987-12.4-3.366-17.246-8.151l2.9-3.621L43.4,12.166H33.976A17.706,17.706,0,0,0,5.106,4.733,16.12,16.12,0,0,0,.05,15.313q-.006.075-.011.151A15.875,15.875,0,0,0,.1,18.319a40.6,40.6,0,0,0,6.9,18.538,41.018,41.018,0,0,0,27.77,17.418,40.75,40.75,0,0,0,5.949.436h0a40.793,40.793,0,0,0,5.386-.357,40.994,40.994,0,0,0,27.98-16.99h0c-.041.014-.536.185-1.4.444" transform="translate(0 0.002)" fill="#1100b2"/>
      <path id="Path_84" data-name="Path 84" d="M621.064,1325.791v-2.88s-14.652,1.684-14.652-10.631c0-11.59.615-16.135,2.3-18.167h-8.956c1.686,2.032,2.3,6.578,2.3,18.167,0,12.315-14.652,10.631-14.652,10.631v2.88Z" transform="translate(-563.448 -1241.329)" fill="#1100b2"/>
    </g>
  </g>
</svg>
