<svg id="Group_63" data-name="Group 63" xmlns="http://www.w3.org/2000/svg" xmlns:xlink="http://www.w3.org/1999/xlink" width="96.915" height="100.346" viewBox="0 0 96.915 100.346">
  <defs>
    <clipPath id="clip-path">
      <rect id="Rectangle_33" data-name="Rectangle 33" width="96.915" height="100.346" transform="translate(0 0)" fill="none"/>
    </clipPath>
  </defs>
  <g id="Group_62" data-name="Group 62" clip-path="url(#clip-path)">
    <path id="Path_79" data-name="Path 79" d="M32.6,38.167c5.761,5.685,13.077,8.511,20.489,9.684,28.6-6.045,43.826-33.394,43.826-33.394S68.762,29.9,36.039,33.865Z" fill="#ff9797"/>
    <path id="Path_80" data-name="Path 80" d="M53.088,47.85a65.272,65.272,0,0,0,15.658.41,90.859,90.859,0,0,0,17.6-3.34C87.4,44.6,88,44.4,88.011,44.391a48.209,48.209,0,0,0,8.9-27.935v-2S81.687,41.806,53.088,47.85" fill="#ff4e00"/>
    <path id="Path_81" data-name="Path 81" d="M36.039,33.865C68.763,29.9,96.915,14.457,96.915,14.457H51.558Z" fill="#89d0ca"/>
    <path id="Path_82" data-name="Path 82" d="M88.012,44.391h0l0,0,0,0"/>
    <path id="Path_83" data-name="Path 83" d="M86.341,44.92a90.859,90.859,0,0,1-17.6,3.34,65.272,65.272,0,0,1-15.658-.41c-7.412-1.173-14.727-4-20.489-9.684l3.44-4.3L51.558,14.456H40.365a21.036,21.036,0,0,0-34.3-8.831A19.152,19.152,0,0,0,.06,18.195c0,.059-.009.119-.014.179a19.028,19.028,0,0,0,.067,3.392A48.238,48.238,0,0,0,8.307,43.79,48.733,48.733,0,0,0,41.3,64.484a48.489,48.489,0,0,0,13.467.094A48.7,48.7,0,0,0,88.009,44.394v0c-.049.017-.637.22-1.667.528" fill="#fff"/>
    <path id="Path_84" data-name="Path 84" d="M68.451,100.346V96.924s-17.407,2-17.407-12.631c0-13.769.731-19.169,2.734-21.583H43.138c2,2.414,2.734,7.814,2.734,21.583,0,14.632-17.407,12.631-17.407,12.631v3.422Z" fill="#fff"/>
  </g>
</svg>
