<svg xmlns="http://www.w3.org/2000/svg" xmlns:xlink="http://www.w3.org/1999/xlink" width="200.078" height="74.17" viewBox="0 0 200.078 74.17">
  <defs>
    <clipPath id="clip-path">
      <rect id="Rectangle_1809" data-name="Rectangle 1809" width="200.078" height="74.17" transform="translate(0 0)" fill="none"/>
    </clipPath>
  </defs>
  <g id="Group_1631" data-name="Group 1631" transform="translate(0 -0.004)">
    <g id="Group_1630" data-name="Group 1630" transform="translate(0 0.005)" clip-path="url(#clip-path)">
      <path id="Path_464" data-name="Path 464" d="M0,1395.542V1381.7H4.557v13.67c0,5.048,2.278,7.221,6.239,7.221s6.2-2.173,6.2-7.221V1381.7h4.487v13.845c0,7.151-4.031,11.041-10.726,11.041-6.73,0-10.761-3.891-10.761-11.041" transform="translate(0 -1332.414)" fill="#fff"/>
      <path id="Path_465" data-name="Path 465" d="M803.051,1381.7v24.536H799.3l-13.53-16.615v16.615h-4.522V1381.7H785l13.53,16.615V1381.7Z" transform="translate(-753.382 -1332.413)" fill="#fff"/>
      <rect id="Rectangle_1807" data-name="Rectangle 1807" width="4.557" height="24.536" transform="translate(56.258 49.283)" fill="#fff"/>
      <rect id="Rectangle_1808" data-name="Rectangle 1808" width="9.639" height="3.645" transform="translate(64.32 62.252)" fill="#fff"/>
      <path id="Path_466" data-name="Path 466" d="M2095.132,1403.043l2.594-3.12a5.95,5.95,0,0,0,4.872,2.8c2.524,0,3.821-1.507,3.821-4.522v-12.689h-8.728V1381.7h13.285v16.264c0,5.784-2.874,8.623-8.272,8.623a9.253,9.253,0,0,1-7.571-3.54" transform="translate(-2020.402 -1332.413)" fill="#fff"/>
      <path id="Path_467" data-name="Path 467" d="M2625.525,1400.555h-12.268l-2.419,5.678h-4.7l11.042-24.536h4.486l11.076,24.536h-4.767Zm-1.507-3.575-4.627-10.726-4.592,10.726Z" transform="translate(-2513.184 -1332.414)" fill="#fff"/>
      <path id="Path_468" data-name="Path 468" d="M3381.5,1394.162l1.577-3.54a13.6,13.6,0,0,0,8.1,2.7c3.821,0,5.433-1.367,5.433-3.19,0-5.293-14.581-1.823-14.581-10.936,0-3.961,3.155-7.326,9.885-7.326a15.513,15.513,0,0,1,8.167,2.173l-1.437,3.54a13.633,13.633,0,0,0-6.765-1.928c-3.786,0-5.328,1.472-5.328,3.33,0,5.223,14.547,1.823,14.547,10.831,0,3.926-3.19,7.291-9.92,7.291-3.821,0-7.641-1.192-9.674-2.944" transform="translate(-3260.885 -1322.937)" fill="#fff"/>
      <path id="Path_469" data-name="Path 469" d="M4282.1,315.787a26.99,26.99,0,0,0,15.082,7.128c21.051-4.449,32.26-24.581,32.26-24.581s-20.722,11.364-44.81,14.286Z" transform="translate(-4129.367 -287.693)" fill="#ff9797"/>
      <path id="Path_470" data-name="Path 470" d="M4704.923,322.915a48.02,48.02,0,0,0,11.526.3,66.879,66.879,0,0,0,12.951-2.458c.782-.234,1.218-.386,1.229-.389a35.482,35.482,0,0,0,6.554-20.563v-1.472s-11.208,20.132-32.26,24.581" transform="translate(-4537.104 -287.693)" fill="#ff4e00"/>
      <path id="Path_471" data-name="Path 471" d="M4353.087,312.621c24.087-2.922,44.81-14.286,44.81-14.286H4364.51Z" transform="translate(-4197.818 -287.694)" fill="#89d0ca"/>
      <path id="Path_472" data-name="Path 472" d="M5425.569,916.083h0l0,0,0,0" transform="translate(-5232.044 -883.408)"/>
      <path id="Path_473" data-name="Path 473" d="M3672.915,33.07a66.869,66.869,0,0,1-12.951,2.458,48.021,48.021,0,0,1-11.526-.3,26.993,26.993,0,0,1-15.082-7.128l2.532-3.166,11.423-14.286h-8.239a15.484,15.484,0,0,0-25.247-6.5A14.1,14.1,0,0,0,3609.4,13.4c0,.044-.007.088-.01.132a13.871,13.871,0,0,0,.05,2.5,35.5,35.5,0,0,0,6.031,16.211,35.87,35.87,0,0,0,24.286,15.233,35.633,35.633,0,0,0,5.2.381h0a35.672,35.672,0,0,0,4.71-.312,35.85,35.85,0,0,0,24.469-14.858h0c-.036.012-.469.162-1.227.389" transform="translate(-3480.619 -0.005)" fill="#fff"/>
      <path id="Path_474" data-name="Path 474" d="M4226.2,1321.822V1319.3s-12.813,1.473-12.813-9.3c0-10.135.538-14.11,2.013-15.887h-7.833c1.475,1.777,2.013,5.752,2.013,15.887,0,10.77-12.813,9.3-12.813,9.3v2.519Z" transform="translate(-4047.075 -1247.96)" fill="#fff"/>
    </g>
  </g>
</svg>
