<?xml version="1.0" encoding="UTF-8" standalone="no" ?>
<!DOCTYPE svg PUBLIC "-//W3C//DTD SVG 1.1//EN" "http://www.w3.org/Graphics/SVG/1.1/DTD/svg11.dtd">
<svg xmlns="http://www.w3.org/2000/svg" xmlns:xlink="http://www.w3.org/1999/xlink" version="1.1" width="1080" height="1080" viewBox="0 0 1080 1080" xml:space="preserve">
<desc>Created with Fabric.js 4.2.0</desc>
<defs>
</defs>
<g transform="matrix(1 0 0 1 540 540)" id="c72c40fc-a69a-49c6-8167-69360aa0d07a"  >
</g>
<g transform="matrix(1 0 0 1 540 540)" id="4680b479-bc2a-4e96-9a30-7e4943899e56"  >
<rect style="stroke: none; stroke-width: 1; stroke-dasharray: none; stroke-linecap: butt; stroke-dashoffset: 0; stroke-linejoin: miter; stroke-miterlimit: 4; fill: rgb(255,255,255); fill-rule: nonzero; opacity: 1;" vector-effect="non-scaling-stroke"  x="-540" y="-540" rx="0" ry="0" width="1080" height="1080" />
</g>
<g transform="matrix(1.4 0 0 1.4 347.79 592.99)" clip-path="url(#CLIPPATH_4)"  >
<clipPath id="CLIPPATH_4" >
	<rect transform="matrix(1 0 0 1 137.07 -37.84)" id="Rectangle_35" x="-153.575" y="-56.93" rx="0" ry="0" width="307.15" height="113.86" />
</clipPath>
<path style="stroke: none; stroke-width: 1; stroke-dasharray: none; stroke-linecap: butt; stroke-dashoffset: 0; stroke-linejoin: miter; stroke-miterlimit: 4; fill: rgb(255,255,255); fill-rule: nonzero; opacity: 1;" vector-effect="non-scaling-stroke"  transform=" translate(-16.49, -1400.8)" d="M 0 1402.952 L 0 1381.7 L 7 1381.7 L 7 1402.6860000000001 C 7 1410.4350000000002 10.5 1413.7710000000002 16.578 1413.7710000000002 C 22.656 1413.7710000000002 26.101999999999997 1410.4350000000002 26.101999999999997 1402.6860000000001 L 26.101999999999997 1381.7 L 32.989999999999995 1381.7 L 32.989999999999995 1402.9550000000002 C 32.989999999999995 1413.9320000000002 26.801999999999996 1419.9050000000002 16.523999999999994 1419.9050000000002 C 6.192999999999994 1419.9050000000002 0.00399999999999423 1413.9320000000002 0.00399999999999423 1402.9550000000002" stroke-linecap="round" />
</g>
<g transform="matrix(1.4 0 0 1.4 408.1 592.62)" clip-path="url(#CLIPPATH_5)"  >
<clipPath id="CLIPPATH_5" >
	<rect transform="matrix(1 0 0 1 94.06 -37.57)" id="Rectangle_35" x="-153.575" y="-56.93" rx="0" ry="0" width="307.15" height="113.86" />
</clipPath>
<path style="stroke: none; stroke-width: 1; stroke-dasharray: none; stroke-linecap: butt; stroke-dashoffset: 0; stroke-linejoin: miter; stroke-miterlimit: 4; fill: rgb(255,255,255); fill-rule: nonzero; opacity: 1;" vector-effect="non-scaling-stroke"  transform=" translate(-797.98, -1400.53)" d="M 814.718 1381.7 L 814.718 1419.367 L 808.9599999999999 1419.367 L 788.189 1393.8609999999999 L 788.189 1419.367 L 781.2479999999999 1419.367 L 781.2479999999999 1381.7 L 787.006 1381.7 L 807.7769999999999 1407.2060000000001 L 807.7769999999999 1381.7 Z" stroke-linecap="round" />
</g>
<g transform="matrix(1.4 0 0 1.4 450.68 592.61)" id="Rectangle_33" clip-path="url(#CLIPPATH_6)"  >
<clipPath id="CLIPPATH_6" >
	<rect transform="matrix(1 0 0 1 63.71 -37.57)" id="Rectangle_35" x="-153.575" y="-56.93" rx="0" ry="0" width="307.15" height="113.86" />
</clipPath>
<rect style="stroke: none; stroke-width: 1; stroke-dasharray: none; stroke-linecap: butt; stroke-dashoffset: 0; stroke-linejoin: miter; stroke-miterlimit: 4; fill: rgb(255,255,255); fill-rule: nonzero; opacity: 1;" vector-effect="non-scaling-stroke"  x="-3.5" y="-18.835" rx="0" ry="0" width="7" height="37.67" />
</g>
<g transform="matrix(1.4 0 0 1.4 473.49 598.08)" id="Rectangle_34" clip-path="url(#CLIPPATH_7)"  >
<clipPath id="CLIPPATH_7" >
	<rect transform="matrix(1 0 0 1 47.43 -41.44)" id="Rectangle_35" x="-153.575" y="-56.93" rx="0" ry="0" width="307.15" height="113.86" />
</clipPath>
<rect style="stroke: none; stroke-width: 1; stroke-dasharray: none; stroke-linecap: butt; stroke-dashoffset: 0; stroke-linejoin: miter; stroke-miterlimit: 4; fill: rgb(255,255,255); fill-rule: nonzero; opacity: 1;" vector-effect="non-scaling-stroke"  x="-7.4" y="-2.8" rx="0" ry="0" width="14.8" height="5.6" />
</g>
<g transform="matrix(1.4 0 0 1.4 502.56 593)" clip-path="url(#CLIPPATH_8)"  >
<clipPath id="CLIPPATH_8" >
	<rect transform="matrix(1 0 0 1 26.69 -37.84)" id="Rectangle_35" x="-153.575" y="-56.93" rx="0" ry="0" width="307.15" height="113.86" />
</clipPath>
<path style="stroke: none; stroke-width: 1; stroke-dasharray: none; stroke-linecap: butt; stroke-dashoffset: 0; stroke-linejoin: miter; stroke-miterlimit: 4; fill: rgb(255,255,255); fill-rule: nonzero; opacity: 1;" vector-effect="non-scaling-stroke"  transform=" translate(-2107.29, -1400.81)" d="M 2095.132 1414.466 L 2099.114 1409.677 C 2101.159 1412.4769999999999 2103.634 1413.9769999999999 2106.593 1413.9769999999999 C 2110.4669999999996 1413.9769999999999 2112.4579999999996 1411.6629999999998 2112.4579999999996 1407.0359999999998 L 2112.4579999999996 1387.5569999999998 L 2099.0579999999995 1387.5569999999998 L 2099.0579999999995 1381.7 L 2119.4519999999993 1381.7 L 2119.4519999999993 1406.6680000000001 C 2119.4519999999993 1415.547 2115.0389999999993 1419.9050000000002 2106.7519999999995 1419.9050000000002 C 2102.233592563897 1420.0458490222888 2097.917893644043 1418.0277965720259 2095.1289999999995 1414.4700000000003" stroke-linecap="round" />
</g>
<g transform="matrix(1.4 0 0 1.4 553.35 592.61)" clip-path="url(#CLIPPATH_9)"  >
<clipPath id="CLIPPATH_9" >
	<rect transform="matrix(1 0 0 1 -9.55 -37.57)" id="Rectangle_35" x="-153.575" y="-56.93" rx="0" ry="0" width="307.15" height="113.86" />
</clipPath>
<path style="stroke: none; stroke-width: 1; stroke-dasharray: none; stroke-linecap: butt; stroke-dashoffset: 0; stroke-linejoin: miter; stroke-miterlimit: 4; fill: rgb(255,255,255); fill-rule: nonzero; opacity: 1;" vector-effect="non-scaling-stroke"  transform=" translate(-2626.56, -1400.53)" d="M 2635.9 1410.647 L 2617.067 1410.647 L 2613.354 1419.364 L 2606.144 1419.364 L 2623.0939999999996 1381.6970000000001 L 2629.9809999999998 1381.6970000000001 L 2646.9809999999998 1419.364 L 2639.6629999999996 1419.364 Z M 2633.5860000000002 1405.158 L 2626.4860000000003 1388.692 L 2619.4370000000004 1405.158 Z" stroke-linecap="round" />
</g>
<g transform="matrix(1.4 0 0 1.4 605.34 592.6)" clip-path="url(#CLIPPATH_10)"  >
<clipPath id="CLIPPATH_10" >
	<rect transform="matrix(1 0 0 1 -46.63 -37.56)" id="Rectangle_35" x="-153.575" y="-56.93" rx="0" ry="0" width="307.15" height="113.86" />
</clipPath>
<path style="stroke: none; stroke-width: 1; stroke-dasharray: none; stroke-linecap: butt; stroke-dashoffset: 0; stroke-linejoin: miter; stroke-miterlimit: 4; fill: rgb(255,255,255); fill-rule: nonzero; opacity: 1;" vector-effect="non-scaling-stroke"  transform=" translate(-3396.54, -1391.24)" d="M 3381.5 1406.092 L 3383.921 1400.6570000000002 C 3387.512202129322 1403.3364518879932 3391.8703666302763 1404.7890565161072 3396.3509999999997 1404.8000000000002 C 3402.2159999999994 1404.8000000000002 3404.691 1402.7000000000003 3404.691 1399.9 C 3404.691 1391.775 3382.3059999999996 1397.1000000000001 3382.3059999999996 1383.111 C 3382.3059999999996 1377.0310000000002 3387.1489999999994 1371.865 3397.4799999999996 1371.865 C 3401.887538470716 1371.7951442888516 3406.227972025374 1372.9500084089934 3410.0179999999996 1375.201 L 3407.8119999999994 1380.636 C 3404.6687020412023 1378.758378358679 3401.087881390172 1377.7380944582073 3397.426999999999 1377.677 C 3391.6149999999993 1377.677 3389.247999999999 1379.937 3389.247999999999 1382.789 C 3389.247999999999 1390.807 3411.5789999999993 1385.589 3411.5789999999993 1399.416 C 3411.5789999999993 1405.443 3406.678999999999 1410.608 3396.350999999999 1410.608 C 3390.4859999999994 1410.608 3384.620999999999 1408.778 3381.4989999999993 1406.088" stroke-linecap="round" />
</g>
<g transform="matrix(1.4 0 0 1.4 704.28 509.49)" clip-path="url(#CLIPPATH_11)"  >
<clipPath id="CLIPPATH_11" >
	<rect transform="matrix(1 0 0 1 -117.24 21.72)" id="Rectangle_35" x="-153.575" y="-56.93" rx="0" ry="0" width="307.15" height="113.86" />
</clipPath>
<path style="stroke: none; stroke-width: 1; stroke-dasharray: none; stroke-linecap: butt; stroke-dashoffset: 0; stroke-linejoin: miter; stroke-miterlimit: 4; fill: rgb(255,151,151); fill-rule: nonzero; opacity: 1;" vector-effect="non-scaling-stroke"  transform=" translate(-4318.44, -317.2)" d="M 4282.1 325.126 C 4288.610000000001 331.54999999999995 4296.877 334.743 4305.252 336.06899999999996 C 4337.569 329.239 4354.776000000001 298.33399999999995 4354.776000000001 298.33399999999995 C 4354.776000000001 298.33399999999995 4322.964000000001 315.77899999999994 4285.986000000001 320.26499999999993 Z" stroke-linecap="round" />
</g>
<g transform="matrix(1.4 0 0 1.4 720.54 510.05)" clip-path="url(#CLIPPATH_12)"  >
<clipPath id="CLIPPATH_12" >
	<rect transform="matrix(1 0 0 1 -128.81 21.33)" id="Rectangle_35" x="-153.575" y="-56.93" rx="0" ry="0" width="307.15" height="113.86" />
</clipPath>
<path style="stroke: none; stroke-width: 1; stroke-dasharray: none; stroke-linecap: butt; stroke-dashoffset: 0; stroke-linejoin: miter; stroke-miterlimit: 4; fill: rgb(255,78,0); fill-rule: nonzero; opacity: 1;" vector-effect="non-scaling-stroke"  transform=" translate(-4729.69, -317.59)" d="M 4704.923 336.069 C 4710.780996228046 336.9334416169078 4716.721811560282 337.0888953017064 4722.617 336.53200000000004 C 4729.352458753291 335.9319087259159 4736.012143943889 334.6677676983876 4742.499 332.75800000000004 C 4743.699 332.39900000000006 4744.369 332.16600000000005 4744.3859999999995 332.158 C 4750.935762417685 322.9354566343469 4754.452109083313 311.9027049005328 4754.446999999999 300.591 L 4754.446999999999 298.331 C 4754.446999999999 298.331 4737.239999999999 329.231 4704.923999999999 336.06600000000003" stroke-linecap="round" />
</g>
<g transform="matrix(1.4 0 0 1.4 707.01 498.43)" clip-path="url(#CLIPPATH_13)"  >
<clipPath id="CLIPPATH_13" >
	<rect transform="matrix(1 0 0 1 -119.18 29.62)" id="Rectangle_35" x="-153.575" y="-56.93" rx="0" ry="0" width="307.15" height="113.86" />
</clipPath>
<path style="stroke: none; stroke-width: 1; stroke-dasharray: none; stroke-linecap: butt; stroke-dashoffset: 0; stroke-linejoin: miter; stroke-miterlimit: 4; fill: rgb(137,208,202); fill-rule: nonzero; opacity: 1;" vector-effect="non-scaling-stroke"  transform=" translate(-4387.48, -309.3)" d="M 4353.087 320.266 C 4390.0650000000005 315.78000000000003 4421.876 298.33500000000004 4421.876 298.33500000000004 L 4370.6230000000005 298.33500000000004 Z" stroke-linecap="round" />
</g>
<g transform="matrix(1.4 0 0 1.4 741.2 530.5)" clip-path="url(#CLIPPATH_14)"  >
<clipPath id="CLIPPATH_14" >
	<rect transform="matrix(1 0 0 1 -143.51 6.76)" id="Rectangle_35" x="-153.575" y="-56.93" rx="0" ry="0" width="307.15" height="113.86" />
</clipPath>
<path style="stroke: none; stroke-width: 1; stroke-dasharray: none; stroke-linecap: butt; stroke-dashoffset: 0; stroke-linejoin: miter; stroke-miterlimit: 4; fill: rgb(0,0,0); fill-rule: nonzero; opacity: 1;" vector-effect="non-scaling-stroke"  transform=" translate(-5425.57, -916.08)" d="M 5425.571 916.083 L 5425.571 916.083 L 5425.571 916.083 L 5425.571 916.083" stroke-linecap="round" />
</g>
<g transform="matrix(1.4 0 0 1.4 671.38 511.59)" clip-path="url(#CLIPPATH_15)"  >
<clipPath id="CLIPPATH_15" >
	<rect transform="matrix(1 0 0 1 -93.79 20.2)" id="Rectangle_35" x="-153.575" y="-56.93" rx="0" ry="0" width="307.15" height="113.86" />
</clipPath>
<path style="stroke: none; stroke-width: 1; stroke-dasharray: none; stroke-linecap: butt; stroke-dashoffset: 0; stroke-linejoin: miter; stroke-miterlimit: 4; fill: rgb(255,255,255); fill-rule: nonzero; opacity: 1;" vector-effect="non-scaling-stroke"  transform=" translate(-3659.09, -36.73)" d="M 3706.926 50.765 C 3700.4391577465885 52.67482485449432 3693.7794668547526 53.938966964231234 3687.044 54.539000000000016 C 3681.1488095749137 55.09583694866976 3675.2080012624633 54.94038344755839 3669.35 54.07599999999999 C 3660.975 52.751 3652.708 49.557 3646.198 43.133 L 3650.085 38.272000000000006 L 3667.621 16.341000000000005 L 3654.974 16.341000000000005 C 3652.4410404993987 8.648912418689633 3646.1661021454192 2.7756688646183143 3638.3234889094724 0.7563836392006476 C 3630.4808756735256 -1.2629015862170192 3622.149788755192 0.8496399993734087 3616.217 6.362 C 3612.2521379562786 10.07549423130233 3609.8290468816353 15.144423703891988 3609.429 20.562000000000005 C 3609.424 20.629000000000005 3609.419 20.697000000000006 3609.414 20.762000000000004 C 3609.324174089972 22.039356422705062 3609.349610233696 23.322208250240763 3609.4900000000002 24.595000000000006 C 3610.4773108689424 33.52715684979796 3613.658047904162 42.076568513638094 3618.7490000000003 49.482 C 3627.3861349773574 62.11957426463572 3640.893746142552 70.59181232822952 3656.0310000000004 72.86600000000001 C 3658.675468874676 73.25584038932361 3661.3449509870225 73.4513639946476 3664.0180000000005 73.45100000000002 L 3664.0180000000005 73.45100000000001 C 3666.4359319250666 73.45112319325465 3668.8512175836013 73.29110634257165 3671.2480000000005 72.97200000000001 C 3686.3928819850007 70.9151237674217 3700.0003047385826 62.65278853957244 3708.8110000000006 50.163999999999994 L 3708.8110000000006 50.16400000000001 C 3708.7560000000008 50.18300000000001 3708.091000000001 50.41300000000001 3706.9270000000006 50.76400000000001" stroke-linecap="round" />
</g>
<g transform="matrix(1.4 0 0 1.4 678.5 589.29)" clip-path="url(#CLIPPATH_16)"  >
<clipPath id="CLIPPATH_16" >
	<rect transform="matrix(1 0 0 1 -98.81 -35.2)" id="Rectangle_35" x="-153.575" y="-56.93" rx="0" ry="0" width="307.15" height="113.86" />
</clipPath>
<path style="stroke: none; stroke-width: 1; stroke-dasharray: none; stroke-linecap: butt; stroke-dashoffset: 0; stroke-linejoin: miter; stroke-miterlimit: 4; fill: rgb(255,255,255); fill-rule: nonzero; opacity: 1;" vector-effect="non-scaling-stroke"  transform=" translate(-4219.36, -1315.38)" d="M 4241.953 1336.648 L 4241.953 1332.781 C 4241.953 1332.781 4222.283 1335.042 4222.283 1318.509 C 4222.283 1302.95 4223.109 1296.848 4225.3730000000005 1294.119 L 4213.35 1294.119 C 4215.6140000000005 1296.848 4216.4400000000005 1302.9489999999998 4216.4400000000005 1318.509 C 4216.4400000000005 1335.042 4196.77 1332.781 4196.77 1332.781 L 4196.77 1336.648 Z" stroke-linecap="round" />
</g>
</svg>